# xmcd
#
# Track frame offsets: 
#        182
#        21550
#        42927
#        54192
#        73480
#        100742
#        117720
#        130350
#        158107
#
# Disc length: 2463 seconds
#
# Revision: 2
# Processed by: cddbd v1.5.2PL0 Copyright (c) Steve Scherf et al.
# Submitted via: ExactAudioCopyFreeDBPlugin 1.0
#
DISCID=83099d09
DTITLE=Jean-Paul L'Heureux - Noël Nouvel Âge
DYEAR=1993
DGENRE=New Age
TTITLE0=Les anges dans nos campagnes
TTITLE1=Noël Étoilé
TTITLE2=Mon beau sapin
TTITLE3=Miracle de Noël
TTITLE4=Diamant ciel
TTITLE5=Il est né le divin enfant
TTITLE6=Matin de Noël
TTITLE7=Sainte Nuit
TTITLE8=Nouveau Noël
EXTD=
EXTT0=
EXTT1=
EXTT2=
EXTT3=
EXTT4=
EXTT5=
EXTT6=
EXTT7=
EXTT8=
PLAYORDER=
